# xmcd
#
# Track frame offsets:
#	150
#	21389
#	44868
#	67240
#	90750
#	105233
#	117187
#	133901
#	151514
#	170439
#	184096
#	196780
#	215329
#	234626
#	251955
#	271344
#	293531
#	317066
#
# Disc length: 4434 seconds
#
# Revision: 1
# Processed by: cddbd v1.5.2PL0 Copyright (c) Steve Scherf et al.
# Submitted via: audiograbber 1.83.01
#
DISCID=fe115012
DTITLE=Siggi Björns - Twenty Summers On Bornholm
DYEAR=2009
DGENRE=Retro
TTITLE0=Summernights
TTITLE1=One Gentle Touch
TTITLE2=Just Another Day
TTITLE3=Streets Of London
TTITLE4=Hello Mary Lou
TTITLE5=Sunny Afternoon
TTITLE6=Laughing In The Rain
TTITLE7=Mercedes Benz
TTITLE8=Annies Eyes
TTITLE9=Stormurinn
TTITLE10=Der Mümmelmann von Tante Wala
TTITLE11=Can't Stop Singing
TTITLE12=Boppin The Blues
TTITLE13=Roads
TTITLE14=Black Is Best
TTITLE15=Shine
TTITLE16=Good Night Irene
TTITLE17=Sa Laenge Je Lever
EXTD=
EXTT0=
EXTT1=
EXTT2=
EXTT3=
EXTT4=
EXTT5=
EXTT6=
EXTT7=
EXTT8=
EXTT9=
EXTT10=
EXTT11=
EXTT12=
EXTT13=
EXTT14=
EXTT15=
EXTT16=
EXTT17=
PLAYORDER=
